# xmcd
#
# Track frame offsets: 
#        150
#        17120
#        35113
#        56603
#        72231
#        87053
#        112196
#        124727
#        139820
#        152919
#        176499
#        189668
#
# Disc length: 2646 seconds
#
# Revision: 0
# Processed by: cddbd v1.5.2PL0 Copyright (c) Steve Scherf et al.
# Submitted via: ExactAudioCopy v0.99pb3
#
DISCID=ab0a540c
DTITLE=The Nighthawks - American Landscape
DYEAR=2008
DGENRE=Blues
TTITLE0=Big Boy
TTITLE1=Down In The Hole
TTITLE2=She Belongs To Me
TTITLE3=Matchbox
TTITLE4=Where Do You Go
TTITLE5=Try It Baby
TTITLE6=Jana Lea
TTITLE7=Made Up My Mind
TTITLE8=Don't Turn Your Heater Down
TTITLE9=Most Likely You Go Your Way And I'll Go Mine
TTITLE10=Standing In The Way
TTITLE11=Fishin' Hole Theme
EXTD=
EXTT0=
EXTT1=
EXTT2=
EXTT3=
EXTT4=
EXTT5=
EXTT6=
EXTT7=
EXTT8=
EXTT9=
EXTT10=
EXTT11=
PLAYORDER=
